REM DIRINDEX 1\2\3,1\2\4,1\2\5,1\2\6
REM DIRNAME folder01,folder02,folder03,folder04,folder05,folder06
TITLE ""
FILE "067 067.mp3" MP3
  TRACK 01 AUDIO
    TITLE "0:"
    INDEX 01 00:00:00
  TRACK 02 AUDIO
    TITLE "3:cjc157_2492"
    INDEX 01 00:00:13
  TRACK 03 AUDIO
    TITLE "0:"
    INDEX 01 00:01:21
  TRACK 04 AUDIO
    TITLE "4:cjc157_2493"
    INDEX 01 00:01:66
  TRACK 05 AUDIO
    TITLE "0:"
    INDEX 01 00:03:06
  TRACK 06 AUDIO
    TITLE "5:cjc157_2494"
    INDEX 01 00:03:47
  TRACK 07 AUDIO
    TITLE "0:"
    INDEX 01 00:05:34
  TRACK 08 AUDIO
    TITLE "5:cjc157_2495"
    INDEX 01 00:06:04
  TRACK 09 AUDIO
    TITLE "0:"
    INDEX 01 00:07:45
  TRACK 10 AUDIO
    TITLE "3:cjc157_2496"
    INDEX 01 00:08:19
  TRACK 11 AUDIO
    TITLE "0:"
    INDEX 01 00:09:22
  TRACK 12 AUDIO
    TITLE "4:cjc157_2497"
    INDEX 01 00:09:67
  TRACK 13 AUDIO
    TITLE "0:"
    INDEX 01 00:11:01
  TRACK 14 AUDIO
    TITLE "5:cjc157_2498"
    INDEX 01 00:11:44
  TRACK 15 AUDIO
    TITLE "0:"
    INDEX 01 00:13:53
  TRACK 16 AUDIO
    TITLE "5:cjc157_2499"
    INDEX 01 00:14:25
  TRACK 17 AUDIO
    TITLE "0:"
    INDEX 01 00:17:63
  TRACK 18 AUDIO
    TITLE "5:cjc157_2500"
    INDEX 01 00:18:35
  TRACK 19 AUDIO
    TITLE "0:"
    INDEX 01 00:20:36
  TRACK 20 AUDIO
    TITLE "3:cjc157_2501"
    INDEX 01 00:21:11
  TRACK 21 AUDIO
    TITLE "0:"
    INDEX 01 00:22:27
  TRACK 22 AUDIO
    TITLE "4:cjc157_2502"
    INDEX 01 00:22:70
  TRACK 23 AUDIO
    TITLE "0:"
    INDEX 01 00:24:02
  TRACK 24 AUDIO
    TITLE "5:cjc157_2503"
    INDEX 01 00:24:55
  TRACK 25 AUDIO
    TITLE "0:"
    INDEX 01 00:26:42
  TRACK 26 AUDIO
    TITLE "3:cjc157_2504"
    INDEX 01 00:27:16
  TRACK 27 AUDIO
    TITLE "0:"
    INDEX 01 00:28:33
  TRACK 28 AUDIO
    TITLE "4:cjc157_2505"
    INDEX 01 00:29:03
  TRACK 29 AUDIO
    TITLE "0:"
    INDEX 01 00:30:30
  TRACK 30 AUDIO
    TITLE "5:cjc157_2506"
    INDEX 01 00:30:71
  TRACK 31 AUDIO
    TITLE "0:"
    INDEX 01 00:32:48
  TRACK 32 AUDIO
    TITLE "5:cjc157_2507"
    INDEX 01 00:33:24
  TRACK 33 AUDIO
    TITLE "0:"
    INDEX 01 00:35:21
  TRACK 34 AUDIO
    TITLE "3:cjc157_2508"
    INDEX 01 00:35:70
  TRACK 35 AUDIO
    TITLE "0:"
    INDEX 01 00:37:44
  TRACK 36 AUDIO
    TITLE "4:cjc157_2509"
    INDEX 01 00:38:12
  TRACK 37 AUDIO
    TITLE "0:"
    INDEX 01 00:39:15
  TRACK 38 AUDIO
    TITLE "5:cjc157_2510"
    INDEX 01 00:39:64
  TRACK 39 AUDIO
    TITLE "0:"
    INDEX 01 00:41:24
  TRACK 40 AUDIO
    TITLE "5:cjc157_2511"
    INDEX 01 00:41:67
  TRACK 41 AUDIO
    TITLE "0:"
    INDEX 01 00:43:48
  TRACK 42 AUDIO
    TITLE "3:cjc157_2512"
    INDEX 01 00:44:20
  TRACK 43 AUDIO
    TITLE "0:"
    INDEX 01 00:45:41
  TRACK 44 AUDIO
    TITLE "4:cjc157_2513"
    INDEX 01 00:46:13
  TRACK 45 AUDIO
    TITLE "0:"
    INDEX 01 00:47:15
  TRACK 46 AUDIO
    TITLE "5:cjc157_2514"
    INDEX 01 00:47:62
  TRACK 47 AUDIO
    TITLE "0:"
    INDEX 01 00:50:11
  TRACK 48 AUDIO
    TITLE "5:cjc157_2515"
    INDEX 01 00:50:56
  TRACK 49 AUDIO
    TITLE "0:"
    INDEX 01 00:52:39
  TRACK 50 AUDIO
    TITLE "3:cjc157_2516"
    INDEX 01 00:53:08
  TRACK 51 AUDIO
    TITLE "0:"
    INDEX 01 00:54:25
  TRACK 52 AUDIO
    TITLE "4:cjc157_2517"
    INDEX 01 00:54:70
  TRACK 53 AUDIO
    TITLE "0:"
    INDEX 01 00:56:29
  TRACK 54 AUDIO
    TITLE "5:cjc157_2518"
    INDEX 01 00:56:72
  TRACK 55 AUDIO
    TITLE "0:"
    INDEX 01 00:59:38
  TRACK 56 AUDIO
    TITLE "3:cjc157_2519"
    INDEX 01 01:00:12
  TRACK 57 AUDIO
    TITLE "0:"
    INDEX 01 01:01:27
  TRACK 58 AUDIO
    TITLE "4:cjc157_2520"
    INDEX 01 01:02:01
  TRACK 59 AUDIO
    TITLE "0:"
    INDEX 01 01:03:00
  TRACK 60 AUDIO
    TITLE "5:cjc157_2521"
    INDEX 01 01:03:45
  TRACK 61 AUDIO
    TITLE "0:"
    INDEX 01 01:05:07
  TRACK 62 AUDIO
    TITLE "5:cjc157_2522"
    INDEX 01 01:05:52
  TRACK 63 AUDIO
    TITLE "0:"
    INDEX 01 01:07:63
  TRACK 64 AUDIO
    TITLE "3:cjc157_2523"
    INDEX 01 01:08:33
  TRACK 65 AUDIO
    TITLE "0:"
    INDEX 01 01:09:56
  TRACK 66 AUDIO
    TITLE "4:cjc157_2524"
    INDEX 01 01:10:26
  TRACK 67 AUDIO
    TITLE "0:"
    INDEX 01 01:11:31
  TRACK 68 AUDIO
    TITLE "5:cjc157_2525"
    INDEX 01 01:12:03
  TRACK 69 AUDIO
    TITLE "0:"
    INDEX 01 01:13:49
  TRACK 70 AUDIO
    TITLE "5:cjc157_2526"
    INDEX 01 01:14:23
  TRACK 71 AUDIO
    TITLE "0:"
    INDEX 01 01:16:28
  TRACK 72 AUDIO
    TITLE "5:cjc157_2527"
    INDEX 01 01:17:02
  TRACK 73 AUDIO
    TITLE "0:"
    INDEX 01 01:18:68
  TRACK 74 AUDIO
    TITLE "3:cjc157_2528"
    INDEX 01 01:19:38
  TRACK 75 AUDIO
    TITLE "0:"
    INDEX 01 01:20:49
  TRACK 76 AUDIO
    TITLE "4:cjc157_2529"
    INDEX 01 01:21:21
  TRACK 77 AUDIO
    TITLE "0:"
    INDEX 01 01:22:25
  TRACK 78 AUDIO
    TITLE "5:cjc157_2530"
    INDEX 01 01:22:70
  TRACK 79 AUDIO
    TITLE "0:"
    INDEX 01 01:25:41
